# xmcd CD database file
#
# Track frame offsets:
#	150
#	12347
#	23335
#	29652
#	52022
#	68170
#	85422
#	105780
#	119965
#	127332
#	146785
#	160067
#	175732
#	182177
#	199362
#	201872
#	216750
#	222350
#	237947
#	246747
#	256717
#
# Disc length: 3435 seconds
#
# Revision: 0
# Processed by: cddbd v1.4PL0 Copyright (c) Steve Scherf et al.
# Submitted via: CDex 1.50Beta5
#
DISCID=430d6915
DTITLE=Marian McPartland - Piano Jazz - With Benny Carter
DYEAR=1989
DGENRE=Jazz
TTITLE0=Conversation
TTITLE1=Easy Money
TTITLE2=conversation
TTITLE3=Faraway
TTITLE4=Conversation
TTITLE5=Blues In My Heart
TTITLE6=Conversation
TTITLE7=Lonely Woman
TTITLE8=Conversation
TTITLE9=Only Trust Your Heart
TTITLE10=Conversation
TTITLE11=Evening Star
TTITLE12=Conversation
TTITLE13=A Kiss From You
TTITLE14=Conversation
TTITLE15=Key Largo
TTITLE16=Conversation
TTITLE17=Summer Serenade
TTITLE18=Conversation
TTITLE19=When Lights Are Low
TTITLE20=Conversation
EXTD=YEAR: 1989
EXTT0=
EXTT1=
EXTT2=
EXTT3=
EXTT4=
EXTT5=
EXTT6=
EXTT7=
EXTT8=
EXTT9=
EXTT10=
EXTT11=
EXTT12=
EXTT13=
EXTT14=
EXTT15=
EXTT16=
EXTT17=
EXTT18=
EXTT19=
EXTT20=
PLAYORDER=
